<?xml version="1.0" encoding="utf-8"?>
<!-- Generator: Adobe Illustrator 23.0.0, SVG Export Plug-In . SVG Version: 6.00 Build 0)  -->
<svg version="1.1" id="Layer_1" xmlns="http://www.w3.org/2000/svg" xmlns:xlink="http://www.w3.org/1999/xlink" x="0px" y="0px"
	 viewBox="0 0 6.9 6.9" style="enable-background:new 0 0 6.9 6.9;" xml:space="preserve">
<style type="text/css">
	.st0{fill:#F14339;}
</style>
<path id="Path_794" class="st0" d="M3.5,6.2C2.7,6.2,2,5.9,1.5,5.4C1,4.9,0.7,4.2,0.7,3.4C0.7,2.7,1,2,1.5,1.5C2,1,2.7,0.7,3.5,0.7
	c0.7,0,1.4,0.3,1.9,0.8C5.9,2,6.2,2.7,6.2,3.4c0,0.7-0.3,1.4-0.8,1.9C4.9,5.9,4.2,6.2,3.5,6.2z"/>
<path id="Path_795" class="st0" d="M3.5,5.5c1.1,0,2-0.9,2-2c0,0,0,0,0,0c0-1.1-0.9-2-2-2c0,0,0,0,0,0c-1.1,0-2,0.9-2,2c0,0,0,0,0,0
	C1.5,4.6,2.4,5.5,3.5,5.5C3.5,5.5,3.5,5.5,3.5,5.5 M3.5,6.9C1.6,6.9,0,5.4,0,3.5c0,0,0,0,0,0C0,1.6,1.5,0,3.5,0c0,0,0,0,0,0
	c1.9,0,3.5,1.5,3.5,3.5c0,0,0,0,0,0C6.9,5.4,5.4,6.9,3.5,6.9C3.5,6.9,3.5,6.9,3.5,6.9L3.5,6.9z"/>
</svg>
