<?xml version="1.0" encoding="utf-8"?>
<!-- Generator: Adobe Illustrator 23.0.0, SVG Export Plug-In . SVG Version: 6.00 Build 0)  -->
<svg version="1.1" id="Layer_1" xmlns="http://www.w3.org/2000/svg" xmlns:xlink="http://www.w3.org/1999/xlink" x="0px" y="0px"
	 viewBox="0 0 374 594" style="enable-background:new 0 0 374 594;" xml:space="preserve">
<style type="text/css">
	.st0{fill:none;}
	.st1{fill:url(#Case-2_1_);}
	.st2{fill:url(#Bezel_1_);}
	.st3{fill:url(#Rectangle_21_1_);}
	.st4{fill:url(#Rectangle_101_1_);}
	.st5{fill:url(#Rectangle_28_1_);}
	.st6{fill:url(#Rectangle_103_1_);}
	.st7{fill:url(#Rectangle_29_1_);}
	.st8{fill:url(#Rectangle_104_1_);}
	.st9{fill:url(#Rectangle_31_1_);}
	.st10{fill:url(#Rectangle_149_1_);}
	.st11{fill:url(#Glass_1_);}
	.st12{fill:url(#Ellipse_7_1_);}
	.st13{fill:url(#Ellipse_8_1_);}
	.st14{fill:#F3F3F3;}
	.st15{fill:#FFFFFF;}
	.st16{fill:#F3F3F3;stroke:#F9F8F8;}
	.st17{fill:url(#Screen_1_);stroke:#D9D9D9;}
	.st18{fill:#E2E2E2;}
</style>
<pattern  x="-21.9" y="628.8" width="1125" height="1786.5" patternUnits="userSpaceOnUse" id="pattern" viewBox="0 -2111.3 1125 1786.5" style="overflow:visible;">
	<g>
		<rect y="-2111.3" class="st0" width="1125" height="1786.5"/>
		
			<image style="overflow:visible;enable-background:new    ;" width="1125" height="2436" xlink:href="F671AA1F.png"  transform="matrix(1 0 0 -1 0 0)">
		</image>
	</g>
</pattern>
<g id="iPhone_X_-_Light" transform="translate(-92.688 16)">
	<g transform="matrix(1, 0, 0, 1, 92.69, -16)">
		
			<linearGradient id="Case-2_1_" gradientUnits="userSpaceOnUse" x1="-21.417" y1="629.2345" x2="-21.417" y2="628.2345" gradientTransform="matrix(237.83 0 0 -483.531 5280.603 304309.625)">
			<stop  offset="0" style="stop-color:#FFFFFF"/>
			<stop  offset="1" style="stop-color:#E3E3E3"/>
		</linearGradient>
		<path id="Case-2" class="st1" d="M100.1,55.2h173.7c17.7,0,32,14.3,32,32l0,0v419.4c0,17.7-14.3,32-32,32l0,0H100.1
			c-17.7,0-32-14.3-32-32c0,0,0,0,0,0V87.3C68.1,69.6,82.4,55.2,100.1,55.2z"/>
	</g>
	
		<linearGradient id="Bezel_1_" gradientUnits="userSpaceOnUse" x1="71.273" y1="613.2345" x2="71.273" y2="612.2345" gradientTransform="matrix(228.834 0 0 -474.536 -16030.001 291045.5625)">
		<stop  offset="0" style="stop-color:#F6F6F6"/>
		<stop  offset="1" style="stop-color:#ECECEC"/>
	</linearGradient>
	<path id="Bezel" class="st2" d="M191.7,43.7h176c14.6,0,26.4,11.8,26.4,26.4v421.7c0,14.6-11.8,26.4-26.4,26.4h-176
		c-14.6,0-26.4-11.8-26.4-26.4V70.2C165.3,55.6,177.1,43.7,191.7,43.7C191.7,43.7,191.7,43.7,191.7,43.7z"/>
	<g id="Button" transform="translate(419.954 186.449)">
		<g id="Group_39" transform="translate(0 0)">
			
				<linearGradient id="Rectangle_21_1_" gradientUnits="userSpaceOnUse" x1="-348.681" y1="426.7855" x2="-348.681" y2="425.7855" gradientTransform="matrix(2.811 0 0 -53.976 959.6328 23001.4082)">
				<stop  offset="0" style="stop-color:#FFFFFF"/>
				<stop  offset="1" style="stop-color:#E5E5E5"/>
			</linearGradient>
			<path id="Rectangle_21" class="st3" d="M-21.9-34.8h0.8c1.1,0,2,0.9,2,2v50c0,1.1-0.9,2-2,2h-0.8l0,0V-34.8L-21.9-34.8z"/>
			
				<linearGradient id="Rectangle_101_1_" gradientUnits="userSpaceOnUse" x1="-348.181" y1="426.2855" x2="-349.181" y2="426.2855" gradientTransform="matrix(2.811 0 0 -53.976 959.6328 23001.4082)">
				<stop  offset="0" style="stop-color:#FFFFFF;stop-opacity:0"/>
				<stop  offset="0.322" style="stop-color:#FDFDFD;stop-opacity:0"/>
				<stop  offset="1" style="stop-color:#DADADA"/>
			</linearGradient>
			<path id="Rectangle_101" class="st4" d="M-21.9-34.8h0.8c1.1,0,2,0.9,2,2v50c0,1.1-0.9,2-2,2h-0.8l0,0V-34.8L-21.9-34.8z"/>
		</g>
	</g>
	<g id="Button-2" transform="translate(181 175.204)">
		
			<linearGradient id="Rectangle_28_1_" gradientUnits="userSpaceOnUse" x1="-109.727" y1="438.0305" x2="-109.727" y2="437.0305" gradientTransform="matrix(2.811 0 0 -33.735 287.9331 14742.1934)">
			<stop  offset="0" style="stop-color:#FFFFFF"/>
			<stop  offset="1" style="stop-color:#E5E5E5"/>
		</linearGradient>
		<path id="Rectangle_28" class="st5" d="M-19.9-34.8h0.8l0,0V-1l0,0h-0.8c-1.1,0-2-0.9-2-2v-29.7C-21.9-33.9-21-34.8-19.9-34.8z"/>
		
			<linearGradient id="Rectangle_103_1_" gradientUnits="userSpaceOnUse" x1="-109.227" y1="437.5305" x2="-110.227" y2="437.5305" gradientTransform="matrix(-2.811 0 0 33.735 -328.9521 -14777.9902)">
			<stop  offset="0" style="stop-color:#FFFFFF;stop-opacity:0"/>
			<stop  offset="0.322" style="stop-color:#FDFDFD;stop-opacity:0"/>
			<stop  offset="1" style="stop-color:#DADADA"/>
		</linearGradient>
		<path id="Rectangle_103" class="st6" d="M-19.1-1h-0.8c-1.1,0-2-0.9-2-2v-29.7c0-1.1,0.9-2,2-2h0.8l0,0V-1L-19.1-1z"/>
	</g>
	<g id="Button-3" transform="translate(181 219.059)">
		
			<linearGradient id="Rectangle_29_1_" gradientUnits="userSpaceOnUse" x1="-109.727" y1="394.1755" x2="-109.727" y2="393.1755" gradientTransform="matrix(2.811 0 0 -33.735 287.9331 13262.7451)">
			<stop  offset="0" style="stop-color:#FFFFFF"/>
			<stop  offset="1" style="stop-color:#E5E5E5"/>
		</linearGradient>
		<path id="Rectangle_29" class="st7" d="M-19.9-34.8h0.8l0,0V-1l0,0h-0.8c-1.1,0-2-0.9-2-2v-29.7C-21.9-33.9-21-34.8-19.9-34.8z"/>
		
			<linearGradient id="Rectangle_104_1_" gradientUnits="userSpaceOnUse" x1="-109.227" y1="393.6755" x2="-110.227" y2="393.6755" gradientTransform="matrix(-2.811 0 0 33.735 -328.9521 -13298.541)">
			<stop  offset="0" style="stop-color:#FFFFFF;stop-opacity:0"/>
			<stop  offset="0.322" style="stop-color:#FDFDFD;stop-opacity:0"/>
			<stop  offset="1" style="stop-color:#DADADA"/>
		</linearGradient>
		<path id="Rectangle_104" class="st8" d="M-19.1-1h-0.8c-1.1,0-2-0.9-2-2v-29.7c0-1.1,0.9-2,2-2h0.8l0,0V-1L-19.1-1z"/>
	</g>
	<g id="Button-4" transform="translate(181 139.783)">
		
			<linearGradient id="Rectangle_31_1_" gradientUnits="userSpaceOnUse" x1="-109.727" y1="473.4515" x2="-109.727" y2="472.4515" gradientTransform="matrix(2.811 0 0 -17.992 287.9331 8483.5742)">
			<stop  offset="0" style="stop-color:#FFFFFF"/>
			<stop  offset="1" style="stop-color:#E5E5E5"/>
		</linearGradient>
		<path id="Rectangle_31" class="st9" d="M-20.9-34.8h1.8l0,0v18l0,0h-1.8c-0.6,0-1-0.4-1-1v-16C-21.9-34.3-21.5-34.8-20.9-34.8z"/>
		
			<linearGradient id="Rectangle_149_1_" gradientUnits="userSpaceOnUse" x1="-109.227" y1="472.9515" x2="-110.227" y2="472.9515" gradientTransform="matrix(-2.811 0 0 17.992 -328.9521 -8535.1133)">
			<stop  offset="0" style="stop-color:#FFFFFF;stop-opacity:0"/>
			<stop  offset="0.322" style="stop-color:#FDFDFD;stop-opacity:0"/>
			<stop  offset="1" style="stop-color:#DADADA"/>
		</linearGradient>
		<path id="Rectangle_149" class="st10" d="M-19.1-16.8h-1.8c-0.6,0-1-0.4-1-1v-16c0-0.6,0.4-1,1-1h1.8l0,0V-16.8L-19.1-16.8z"/>
	</g>
	
		<linearGradient id="Glass_1_" gradientUnits="userSpaceOnUse" x1="71.273" y1="613.2345" x2="71.273" y2="612.2345" gradientTransform="matrix(224.339 0 0 -470.037 -15709.6279 288288.875)">
		<stop  offset="0" style="stop-color:#FFFFFF"/>
		<stop  offset="1" style="stop-color:#F6F6F6"/>
	</linearGradient>
	<path id="Glass" class="st11" d="M192.3,46h174.9c13.7,0,24.7,11.1,24.7,24.7v420.6c0,13.7-11.1,24.7-24.7,24.7H192.3
		c-13.7,0-24.7-11.1-24.7-24.7V70.7C167.5,57.1,178.6,46,192.3,46C192.3,46,192.3,46,192.3,46z"/>
	<g id="Camera" transform="translate(326.059 88.056)">
		
			<linearGradient id="Ellipse_7_1_" gradientUnits="userSpaceOnUse" x1="-254.786" y1="525.1785" x2="-254.786" y2="524.1785" gradientTransform="matrix(8.434 0 0 -8.434 2131.167 4394.5898)">
			<stop  offset="0" style="stop-color:#F3F3F3"/>
			<stop  offset="1" style="stop-color:#FFFFFF"/>
		</linearGradient>
		<ellipse id="Ellipse_7" class="st12" cx="-17.7" cy="-30.5" rx="4.2" ry="4.2"/>
		
			<linearGradient id="Ellipse_8_1_" gradientUnits="userSpaceOnUse" x1="-254.786" y1="525.1785" x2="-254.786" y2="524.1785" gradientTransform="matrix(7.31 0 0 -7.31 1844.7875 3804.8513)">
			<stop  offset="0" style="stop-color:#FFFFFF"/>
			<stop  offset="1" style="stop-color:#F3F3F3"/>
		</linearGradient>
		<circle id="Ellipse_8" class="st13" cx="-17.7" cy="-30.5" r="3.7"/>
		<ellipse id="Ellipse_10" class="st14" cx="-17.7" cy="-30.5" rx="2.5" ry="2.5"/>
		<ellipse id="Ellipse_9" class="st15" cx="-17.7" cy="-32.5" rx="0.8" ry="0.6"/>
	</g>
	<path id="Ear_Piece" class="st16" d="M264.2,55.8h30.9c1.1,0,2,0.9,2,2c0,1.1-0.9,2-2,2h-30.9c-1.1,0-2-0.9-2-2
		C262.3,56.7,263.1,55.8,264.2,55.8z"/>
	<pattern  id="Screen_1_" xlink:href="#pattern" patternTransform="matrix(0.1874 0 0 -0.1874 -6365.5645 -12108.7021)">
	</pattern>
	<path id="Screen" class="st17" d="M363.7,509.3H195.6c-11.8,0-21.4-9.6-21.4-21.4V74.1c0-11.8,9.6-21.4,21.4-21.4h22.6
		c1.5,0.3,2.6,1.4,2.9,2.9c0.1,0.4,0.2,0.9,0.3,1.6c0.2,1.2,0.5,2.7,0.9,4.1c0.5,1.9,2.8,8.2,10.4,8.3c2.9,0,20.8,0,35.4,0
		c26.8,0,57.5,0,58.9,0c7.6-0.1,9.9-6.4,10.4-8.3c0.4-1.5,0.7-3,0.9-4.1c0.1-0.6,0.2-1.1,0.3-1.6c0.3-1.5,1.4-2.6,2.9-2.9h22.1
		c11.8,0,21.4,9.6,21.4,21.4v413.8C385.1,499.7,375.5,509.3,363.7,509.3z"/>
	<path id="Home" class="st18" d="M244.8,499.7h70.3c0.8,0,1.4,0.7,1.4,1.4c0,0.7-0.6,1.3-1.4,1.4h-70.3c-0.8,0-1.4-0.7-1.4-1.4
		C243.5,500.3,244.1,499.7,244.8,499.7z"/>
</g>
</svg>
