<?xml version="1.0" encoding="utf-8"?>
<!-- Generator: Adobe Illustrator 23.0.0, SVG Export Plug-In . SVG Version: 6.00 Build 0)  -->
<svg version="1.1" id="Layer_1" xmlns="http://www.w3.org/2000/svg" xmlns:xlink="http://www.w3.org/1999/xlink" x="0px" y="0px"
	 viewBox="0 0 4.5 969" style="enable-background:new 0 0 4.5 969;" xml:space="preserve">
<style type="text/css">
	.st0{opacity:0.182;clip-path:url(#SVGID_2_);}
	.st1{fill:#801336;}
	.st2{fill:#F14339;}
</style>
<g>
	<defs>
		<rect id="SVGID_1_" y="0" width="4.5" height="969"/>
	</defs>
	<clipPath id="SVGID_2_">
		<use xlink:href="#SVGID_1_"  style="overflow:visible;"/>
	</clipPath>
	<g id="line" class="st0">
		<g transform="translate(-128 -133)">
			<path id="round" class="st1" d="M130.3,133L130.3,133c0.8,0,1.5,0.7,1.5,1.5l0,0c0,0.8-0.7,1.5-1.5,1.5l0,0
				c-0.8,0-1.5-0.7-1.5-1.5l0,0C128.8,133.7,129.4,133,130.3,133z"/>
		</g>
		<g transform="translate(-128 -124)">
			<path id="round-2" class="st1" d="M130.3,133L130.3,133c0.8,0,1.5,0.7,1.5,1.5l0,0c0,0.8-0.7,1.5-1.5,1.5l0,0
				c-0.8,0-1.5-0.7-1.5-1.5l0,0C128.8,133.7,129.4,133,130.3,133z"/>
		</g>
		<g transform="translate(-128 -115)">
			<path id="round-3" class="st1" d="M130.3,133L130.3,133c0.8,0,1.5,0.7,1.5,1.5l0,0c0,0.8-0.7,1.5-1.5,1.5l0,0
				c-0.8,0-1.5-0.7-1.5-1.5l0,0C128.8,133.7,129.4,133,130.3,133z"/>
		</g>
		<g transform="translate(-128 -106)">
			<path id="round-4" class="st1" d="M130.3,133L130.3,133c0.8,0,1.5,0.7,1.5,1.5l0,0c0,0.8-0.7,1.5-1.5,1.5l0,0
				c-0.8,0-1.5-0.7-1.5-1.5l0,0C128.8,133.7,129.4,133,130.3,133z"/>
		</g>
		<g transform="translate(-128 -97)">
			<path id="round-5" class="st1" d="M130.3,133L130.3,133c0.8,0,1.5,0.7,1.5,1.5l0,0c0,0.8-0.7,1.5-1.5,1.5l0,0
				c-0.8,0-1.5-0.7-1.5-1.5l0,0C128.8,133.7,129.4,133,130.3,133z"/>
		</g>
		<g transform="translate(-128 -88)">
			<path id="round-6" class="st1" d="M130.3,133L130.3,133c0.8,0,1.5,0.7,1.5,1.5l0,0c0,0.8-0.7,1.5-1.5,1.5l0,0
				c-0.8,0-1.5-0.7-1.5-1.5l0,0C128.8,133.7,129.4,133,130.3,133z"/>
		</g>
		<g transform="translate(-128 -79)">
			<path id="round-7" class="st1" d="M130.3,133L130.3,133c0.8,0,1.5,0.7,1.5,1.5l0,0c0,0.8-0.7,1.5-1.5,1.5l0,0
				c-0.8,0-1.5-0.7-1.5-1.5l0,0C128.8,133.7,129.4,133,130.3,133z"/>
		</g>
		<g transform="translate(-128 -70)">
			<path id="round-8" class="st1" d="M130.3,133L130.3,133c0.8,0,1.5,0.7,1.5,1.5l0,0c0,0.8-0.7,1.5-1.5,1.5l0,0
				c-0.8,0-1.5-0.7-1.5-1.5l0,0C128.8,133.7,129.4,133,130.3,133z"/>
		</g>
		<g transform="translate(-128 -61)">
			<path id="round-9" class="st1" d="M130.3,133L130.3,133c0.8,0,1.5,0.7,1.5,1.5l0,0c0,0.8-0.7,1.5-1.5,1.5l0,0
				c-0.8,0-1.5-0.7-1.5-1.5l0,0C128.8,133.7,129.4,133,130.3,133z"/>
		</g>
		<g transform="translate(-128 -52)">
			<path id="round-10" class="st1" d="M130.3,133L130.3,133c0.8,0,1.5,0.7,1.5,1.5l0,0c0,0.8-0.7,1.5-1.5,1.5l0,0
				c-0.8,0-1.5-0.7-1.5-1.5l0,0C128.8,133.7,129.4,133,130.3,133z"/>
		</g>
		<g transform="translate(-128 -43)">
			<path id="round-11" class="st1" d="M130.3,133L130.3,133c0.8,0,1.5,0.7,1.5,1.5l0,0c0,0.8-0.7,1.5-1.5,1.5l0,0
				c-0.8,0-1.5-0.7-1.5-1.5l0,0C128.8,133.7,129.4,133,130.3,133z"/>
		</g>
		<g transform="translate(-128 -34)">
			<path id="round-12" class="st1" d="M130.3,133L130.3,133c0.8,0,1.5,0.7,1.5,1.5l0,0c0,0.8-0.7,1.5-1.5,1.5l0,0
				c-0.8,0-1.5-0.7-1.5-1.5l0,0C128.8,133.7,129.4,133,130.3,133z"/>
		</g>
		<g transform="translate(-128 -25)">
			<path id="round-13" class="st1" d="M130.3,133L130.3,133c0.8,0,1.5,0.7,1.5,1.5l0,0c0,0.8-0.7,1.5-1.5,1.5l0,0
				c-0.8,0-1.5-0.7-1.5-1.5l0,0C128.8,133.7,129.4,133,130.3,133z"/>
		</g>
		<g transform="translate(-128 -16)">
			<path id="round-14" class="st1" d="M130.3,133L130.3,133c0.8,0,1.5,0.7,1.5,1.5l0,0c0,0.8-0.7,1.5-1.5,1.5l0,0
				c-0.8,0-1.5-0.7-1.5-1.5l0,0C128.8,133.7,129.4,133,130.3,133z"/>
		</g>
		<g transform="translate(-128 -7)">
			<path id="round-15" class="st1" d="M130.3,133L130.3,133c0.8,0,1.5,0.7,1.5,1.5l0,0c0,0.8-0.7,1.5-1.5,1.5l0,0
				c-0.8,0-1.5-0.7-1.5-1.5l0,0C128.8,133.7,129.4,133,130.3,133z"/>
		</g>
		<g transform="translate(-128 2)">
			<path id="round-16" class="st1" d="M130.3,133L130.3,133c0.8,0,1.5,0.7,1.5,1.5l0,0c0,0.8-0.7,1.5-1.5,1.5l0,0
				c-0.8,0-1.5-0.7-1.5-1.5l0,0C128.8,133.7,129.4,133,130.3,133z"/>
		</g>
		<g transform="translate(-128 11)">
			<path id="round-17" class="st1" d="M130.3,133L130.3,133c0.8,0,1.5,0.7,1.5,1.5l0,0c0,0.8-0.7,1.5-1.5,1.5l0,0
				c-0.8,0-1.5-0.7-1.5-1.5l0,0C128.8,133.7,129.4,133,130.3,133z"/>
		</g>
		<g transform="translate(-128 20)">
			<path id="round-18" class="st1" d="M130.3,133L130.3,133c0.8,0,1.5,0.7,1.5,1.5l0,0c0,0.8-0.7,1.5-1.5,1.5l0,0
				c-0.8,0-1.5-0.7-1.5-1.5l0,0C128.8,133.7,129.4,133,130.3,133z"/>
		</g>
		<g transform="translate(-128 29)">
			<path id="round-19" class="st1" d="M130.3,133L130.3,133c0.8,0,1.5,0.7,1.5,1.5l0,0c0,0.8-0.7,1.5-1.5,1.5l0,0
				c-0.8,0-1.5-0.7-1.5-1.5l0,0C128.8,133.7,129.4,133,130.3,133z"/>
		</g>
		<g transform="translate(-128 38)">
			<path id="round-20" class="st1" d="M130.3,133L130.3,133c0.8,0,1.5,0.7,1.5,1.5l0,0c0,0.8-0.7,1.5-1.5,1.5l0,0
				c-0.8,0-1.5-0.7-1.5-1.5l0,0C128.8,133.7,129.4,133,130.3,133z"/>
		</g>
		<g transform="translate(-128 47)">
			<path id="round-21" class="st1" d="M130.3,133L130.3,133c0.8,0,1.5,0.7,1.5,1.5l0,0c0,0.8-0.7,1.5-1.5,1.5l0,0
				c-0.8,0-1.5-0.7-1.5-1.5l0,0C128.8,133.7,129.4,133,130.3,133z"/>
		</g>
		<g transform="translate(-128 56)">
			<path id="round-22" class="st1" d="M130.3,133L130.3,133c0.8,0,1.5,0.7,1.5,1.5l0,0c0,0.8-0.7,1.5-1.5,1.5l0,0
				c-0.8,0-1.5-0.7-1.5-1.5l0,0C128.8,133.7,129.4,133,130.3,133z"/>
		</g>
		<g transform="translate(-128 65)">
			<path id="round-23" class="st1" d="M130.3,133L130.3,133c0.8,0,1.5,0.7,1.5,1.5l0,0c0,0.8-0.7,1.5-1.5,1.5l0,0
				c-0.8,0-1.5-0.7-1.5-1.5l0,0C128.8,133.7,129.4,133,130.3,133z"/>
		</g>
		<g transform="translate(-128 74)">
			<path id="round-24" class="st1" d="M130.3,133L130.3,133c0.8,0,1.5,0.7,1.5,1.5l0,0c0,0.8-0.7,1.5-1.5,1.5l0,0
				c-0.8,0-1.5-0.7-1.5-1.5l0,0C128.8,133.7,129.4,133,130.3,133z"/>
		</g>
		<g transform="translate(-128 83)">
			<path id="round-25" class="st1" d="M130.3,133L130.3,133c0.8,0,1.5,0.7,1.5,1.5l0,0c0,0.8-0.7,1.5-1.5,1.5l0,0
				c-0.8,0-1.5-0.7-1.5-1.5l0,0C128.8,133.7,129.4,133,130.3,133z"/>
		</g>
		<g transform="translate(-128 92)">
			<path id="round-26" class="st1" d="M130.3,133L130.3,133c0.8,0,1.5,0.7,1.5,1.5l0,0c0,0.8-0.7,1.5-1.5,1.5l0,0
				c-0.8,0-1.5-0.7-1.5-1.5l0,0C128.8,133.7,129.4,133,130.3,133z"/>
		</g>
		<g transform="translate(-128 101)">
			<path id="round-27" class="st1" d="M130.3,133L130.3,133c0.8,0,1.5,0.7,1.5,1.5l0,0c0,0.8-0.7,1.5-1.5,1.5l0,0
				c-0.8,0-1.5-0.7-1.5-1.5l0,0C128.8,133.7,129.4,133,130.3,133z"/>
		</g>
		<g transform="translate(-128 110)">
			<path id="round-28" class="st1" d="M130.3,133L130.3,133c0.8,0,1.5,0.7,1.5,1.5l0,0c0,0.8-0.7,1.5-1.5,1.5l0,0
				c-0.8,0-1.5-0.7-1.5-1.5l0,0C128.8,133.7,129.4,133,130.3,133z"/>
		</g>
		<g transform="translate(-128 119)">
			<path id="round-29" class="st1" d="M130.3,133L130.3,133c0.8,0,1.5,0.7,1.5,1.5l0,0c0,0.8-0.7,1.5-1.5,1.5l0,0
				c-0.8,0-1.5-0.7-1.5-1.5l0,0C128.8,133.7,129.4,133,130.3,133z"/>
		</g>
		<g transform="translate(-128 128)">
			<path id="round-30" class="st1" d="M130.3,133L130.3,133c0.8,0,1.5,0.7,1.5,1.5l0,0c0,0.8-0.7,1.5-1.5,1.5l0,0
				c-0.8,0-1.5-0.7-1.5-1.5l0,0C128.8,133.7,129.4,133,130.3,133z"/>
		</g>
		<g transform="translate(-128 137)">
			<path id="round-31" class="st1" d="M130.3,133L130.3,133c0.8,0,1.5,0.7,1.5,1.5l0,0c0,0.8-0.7,1.5-1.5,1.5l0,0
				c-0.8,0-1.5-0.7-1.5-1.5l0,0C128.8,133.7,129.4,133,130.3,133z"/>
		</g>
		<g transform="translate(-128 146)">
			<path id="round-32" class="st1" d="M130.3,133L130.3,133c0.8,0,1.5,0.7,1.5,1.5l0,0c0,0.8-0.7,1.5-1.5,1.5l0,0
				c-0.8,0-1.5-0.7-1.5-1.5l0,0C128.8,133.7,129.4,133,130.3,133z"/>
		</g>
		<g transform="translate(-128 155)">
			<path id="round-33" class="st1" d="M130.3,133L130.3,133c0.8,0,1.5,0.7,1.5,1.5l0,0c0,0.8-0.7,1.5-1.5,1.5l0,0
				c-0.8,0-1.5-0.7-1.5-1.5l0,0C128.8,133.7,129.4,133,130.3,133z"/>
		</g>
		<g transform="translate(-128 164)">
			<path id="round-34" class="st1" d="M130.3,133L130.3,133c0.8,0,1.5,0.7,1.5,1.5l0,0c0,0.8-0.7,1.5-1.5,1.5l0,0
				c-0.8,0-1.5-0.7-1.5-1.5l0,0C128.8,133.7,129.4,133,130.3,133z"/>
		</g>
		<g transform="translate(-128 173)">
			<path id="round-35" class="st1" d="M130.3,133L130.3,133c0.8,0,1.5,0.7,1.5,1.5l0,0c0,0.8-0.7,1.5-1.5,1.5l0,0
				c-0.8,0-1.5-0.7-1.5-1.5l0,0C128.8,133.7,129.4,133,130.3,133z"/>
		</g>
		<g transform="translate(-128 182)">
			<path id="round-36" class="st1" d="M130.3,133L130.3,133c0.8,0,1.5,0.7,1.5,1.5l0,0c0,0.8-0.7,1.5-1.5,1.5l0,0
				c-0.8,0-1.5-0.7-1.5-1.5l0,0C128.8,133.7,129.4,133,130.3,133z"/>
		</g>
		<g transform="translate(-128 191)">
			<path id="round-37" class="st1" d="M130.3,133L130.3,133c0.8,0,1.5,0.7,1.5,1.5l0,0c0,0.8-0.7,1.5-1.5,1.5l0,0
				c-0.8,0-1.5-0.7-1.5-1.5l0,0C128.8,133.7,129.4,133,130.3,133z"/>
		</g>
		<g transform="translate(-128 200)">
			<path id="round-38" class="st1" d="M130.3,133L130.3,133c0.8,0,1.5,0.7,1.5,1.5l0,0c0,0.8-0.7,1.5-1.5,1.5l0,0
				c-0.8,0-1.5-0.7-1.5-1.5l0,0C128.8,133.7,129.4,133,130.3,133z"/>
		</g>
		<g transform="translate(-128 209)">
			<path id="round-39" class="st1" d="M130.3,133L130.3,133c0.8,0,1.5,0.7,1.5,1.5l0,0c0,0.8-0.7,1.5-1.5,1.5l0,0
				c-0.8,0-1.5-0.7-1.5-1.5l0,0C128.8,133.7,129.4,133,130.3,133z"/>
		</g>
		<g transform="translate(-128 218)">
			<path id="round-40" class="st1" d="M130.3,133L130.3,133c0.8,0,1.5,0.7,1.5,1.5l0,0c0,0.8-0.7,1.5-1.5,1.5l0,0
				c-0.8,0-1.5-0.7-1.5-1.5l0,0C128.8,133.7,129.4,133,130.3,133z"/>
		</g>
		<g transform="translate(-128 227)">
			<path id="round-41" class="st1" d="M130.3,133L130.3,133c0.8,0,1.5,0.7,1.5,1.5l0,0c0,0.8-0.7,1.5-1.5,1.5l0,0
				c-0.8,0-1.5-0.7-1.5-1.5l0,0C128.8,133.7,129.4,133,130.3,133z"/>
		</g>
		<g transform="translate(-128 236)">
			<path id="round-42" class="st1" d="M130.3,133L130.3,133c0.8,0,1.5,0.7,1.5,1.5l0,0c0,0.8-0.7,1.5-1.5,1.5l0,0
				c-0.8,0-1.5-0.7-1.5-1.5l0,0C128.8,133.7,129.4,133,130.3,133z"/>
		</g>
		<g transform="translate(-128 245)">
			<path id="round-43" class="st1" d="M130.3,133L130.3,133c0.8,0,1.5,0.7,1.5,1.5l0,0c0,0.8-0.7,1.5-1.5,1.5l0,0
				c-0.8,0-1.5-0.7-1.5-1.5l0,0C128.8,133.7,129.4,133,130.3,133z"/>
		</g>
		<g transform="translate(-128 254)">
			<path id="round-44" class="st1" d="M130.3,133L130.3,133c0.8,0,1.5,0.7,1.5,1.5l0,0c0,0.8-0.7,1.5-1.5,1.5l0,0
				c-0.8,0-1.5-0.7-1.5-1.5l0,0C128.8,133.7,129.4,133,130.3,133z"/>
		</g>
		<g transform="translate(-128 263)">
			<path id="round-45" class="st1" d="M130.3,133L130.3,133c0.8,0,1.5,0.7,1.5,1.5l0,0c0,0.8-0.7,1.5-1.5,1.5l0,0
				c-0.8,0-1.5-0.7-1.5-1.5l0,0C128.8,133.7,129.4,133,130.3,133z"/>
		</g>
		<g transform="translate(-128 272)">
			<path id="round-46" class="st1" d="M130.3,133L130.3,133c0.8,0,1.5,0.7,1.5,1.5l0,0c0,0.8-0.7,1.5-1.5,1.5l0,0
				c-0.8,0-1.5-0.7-1.5-1.5l0,0C128.8,133.7,129.4,133,130.3,133z"/>
		</g>
		<g transform="translate(-128 281)">
			<path id="round-47" class="st1" d="M130.3,133L130.3,133c0.8,0,1.5,0.7,1.5,1.5l0,0c0,0.8-0.7,1.5-1.5,1.5l0,0
				c-0.8,0-1.5-0.7-1.5-1.5l0,0C128.8,133.7,129.4,133,130.3,133z"/>
		</g>
		<g transform="translate(-128 290)">
			<path id="round-48" class="st1" d="M130.3,133L130.3,133c0.8,0,1.5,0.7,1.5,1.5l0,0c0,0.8-0.7,1.5-1.5,1.5l0,0
				c-0.8,0-1.5-0.7-1.5-1.5l0,0C128.8,133.7,129.4,133,130.3,133z"/>
		</g>
		<g transform="translate(-128 299)">
			<path id="round-49" class="st1" d="M130.3,133L130.3,133c0.8,0,1.5,0.7,1.5,1.5l0,0c0,0.8-0.7,1.5-1.5,1.5l0,0
				c-0.8,0-1.5-0.7-1.5-1.5l0,0C128.8,133.7,129.4,133,130.3,133z"/>
		</g>
		<g transform="translate(-128 308)">
			<path id="round-50" class="st1" d="M130.3,133L130.3,133c0.8,0,1.5,0.7,1.5,1.5l0,0c0,0.8-0.7,1.5-1.5,1.5l0,0
				c-0.8,0-1.5-0.7-1.5-1.5l0,0C128.8,133.7,129.4,133,130.3,133z"/>
		</g>
		<g transform="translate(-128 317)">
			<path id="round-51" class="st1" d="M130.3,133L130.3,133c0.8,0,1.5,0.7,1.5,1.5l0,0c0,0.8-0.7,1.5-1.5,1.5l0,0
				c-0.8,0-1.5-0.7-1.5-1.5l0,0C128.8,133.7,129.4,133,130.3,133z"/>
		</g>
		<g transform="translate(-128 326)">
			<path id="round-52" class="st1" d="M130.3,133L130.3,133c0.8,0,1.5,0.7,1.5,1.5l0,0c0,0.8-0.7,1.5-1.5,1.5l0,0
				c-0.8,0-1.5-0.7-1.5-1.5l0,0C128.8,133.7,129.4,133,130.3,133z"/>
		</g>
		<g transform="translate(-128 335)">
			<path id="round-53" class="st1" d="M130.3,133L130.3,133c0.8,0,1.5,0.7,1.5,1.5l0,0c0,0.8-0.7,1.5-1.5,1.5l0,0
				c-0.8,0-1.5-0.7-1.5-1.5l0,0C128.8,133.7,129.4,133,130.3,133z"/>
		</g>
		<g transform="translate(-128 344)">
			<path id="round-54" class="st1" d="M130.3,133L130.3,133c0.8,0,1.5,0.7,1.5,1.5l0,0c0,0.8-0.7,1.5-1.5,1.5l0,0
				c-0.8,0-1.5-0.7-1.5-1.5l0,0C128.8,133.7,129.4,133,130.3,133z"/>
		</g>
		<g transform="translate(-128 353)">
			<path id="round-55" class="st1" d="M130.3,133L130.3,133c0.8,0,1.5,0.7,1.5,1.5l0,0c0,0.8-0.7,1.5-1.5,1.5l0,0
				c-0.8,0-1.5-0.7-1.5-1.5l0,0C128.8,133.7,129.4,133,130.3,133z"/>
		</g>
		<g transform="translate(-128 362)">
			<path id="round-56" class="st1" d="M130.3,133L130.3,133c0.8,0,1.5,0.7,1.5,1.5l0,0c0,0.8-0.7,1.5-1.5,1.5l0,0
				c-0.8,0-1.5-0.7-1.5-1.5l0,0C128.8,133.7,129.4,133,130.3,133z"/>
		</g>
		<g transform="translate(-128 371)">
			<path id="round-57" class="st1" d="M130.3,133L130.3,133c0.8,0,1.5,0.7,1.5,1.5l0,0c0,0.8-0.7,1.5-1.5,1.5l0,0
				c-0.8,0-1.5-0.7-1.5-1.5l0,0C128.8,133.7,129.4,133,130.3,133z"/>
		</g>
		<g transform="translate(-128 380)">
			<path id="round-58" class="st1" d="M130.3,133L130.3,133c0.8,0,1.5,0.7,1.5,1.5l0,0c0,0.8-0.7,1.5-1.5,1.5l0,0
				c-0.8,0-1.5-0.7-1.5-1.5l0,0C128.8,133.7,129.4,133,130.3,133z"/>
		</g>
		<g transform="translate(-128 389)">
			<path id="round-59" class="st1" d="M130.3,133L130.3,133c0.8,0,1.5,0.7,1.5,1.5l0,0c0,0.8-0.7,1.5-1.5,1.5l0,0
				c-0.8,0-1.5-0.7-1.5-1.5l0,0C128.8,133.7,129.4,133,130.3,133z"/>
		</g>
		<g transform="translate(-128 398)">
			<path id="round-60" class="st1" d="M130.3,133L130.3,133c0.8,0,1.5,0.7,1.5,1.5l0,0c0,0.8-0.7,1.5-1.5,1.5l0,0
				c-0.8,0-1.5-0.7-1.5-1.5l0,0C128.8,133.7,129.4,133,130.3,133z"/>
		</g>
		<g transform="translate(-128 407)">
			<path id="round-61" class="st1" d="M130.3,133L130.3,133c0.8,0,1.5,0.7,1.5,1.5l0,0c0,0.8-0.7,1.5-1.5,1.5l0,0
				c-0.8,0-1.5-0.7-1.5-1.5l0,0C128.8,133.7,129.4,133,130.3,133z"/>
		</g>
		<g transform="translate(-128 416)">
			<path id="round-62" class="st1" d="M130.3,133L130.3,133c0.8,0,1.5,0.7,1.5,1.5l0,0c0,0.8-0.7,1.5-1.5,1.5l0,0
				c-0.8,0-1.5-0.7-1.5-1.5l0,0C128.8,133.7,129.4,133,130.3,133z"/>
		</g>
		<g transform="translate(-128 425)">
			<path id="round-63" class="st1" d="M130.3,133L130.3,133c0.8,0,1.5,0.7,1.5,1.5l0,0c0,0.8-0.7,1.5-1.5,1.5l0,0
				c-0.8,0-1.5-0.7-1.5-1.5l0,0C128.8,133.7,129.4,133,130.3,133z"/>
		</g>
		<g transform="translate(-128 434)">
			<path id="round-64" class="st1" d="M130.3,133L130.3,133c0.8,0,1.5,0.7,1.5,1.5l0,0c0,0.8-0.7,1.5-1.5,1.5l0,0
				c-0.8,0-1.5-0.7-1.5-1.5l0,0C128.8,133.7,129.4,133,130.3,133z"/>
		</g>
		<g transform="translate(-128 443)">
			<path id="round-65" class="st1" d="M130.3,133L130.3,133c0.8,0,1.5,0.7,1.5,1.5l0,0c0,0.8-0.7,1.5-1.5,1.5l0,0
				c-0.8,0-1.5-0.7-1.5-1.5l0,0C128.8,133.7,129.4,133,130.3,133z"/>
		</g>
		<g transform="translate(-128 452)">
			<path id="round-66" class="st1" d="M130.3,133L130.3,133c0.8,0,1.5,0.7,1.5,1.5l0,0c0,0.8-0.7,1.5-1.5,1.5l0,0
				c-0.8,0-1.5-0.7-1.5-1.5l0,0C128.8,133.7,129.4,133,130.3,133z"/>
		</g>
		<g transform="translate(-128 461)">
			<path id="round-67" class="st1" d="M130.3,133L130.3,133c0.8,0,1.5,0.7,1.5,1.5l0,0c0,0.8-0.7,1.5-1.5,1.5l0,0
				c-0.8,0-1.5-0.7-1.5-1.5l0,0C128.8,133.7,129.4,133,130.3,133z"/>
		</g>
		<g transform="translate(-128 470)">
			<path id="round-68" class="st1" d="M130.3,133L130.3,133c0.8,0,1.5,0.7,1.5,1.5l0,0c0,0.8-0.7,1.5-1.5,1.5l0,0
				c-0.8,0-1.5-0.7-1.5-1.5l0,0C128.8,133.7,129.4,133,130.3,133z"/>
		</g>
		<g transform="translate(-128 479)">
			<path id="round-69" class="st1" d="M130.3,133L130.3,133c0.8,0,1.5,0.7,1.5,1.5l0,0c0,0.8-0.7,1.5-1.5,1.5l0,0
				c-0.8,0-1.5-0.7-1.5-1.5l0,0C128.8,133.7,129.4,133,130.3,133z"/>
		</g>
		<g transform="translate(-128 488)">
			<path id="round-70" class="st1" d="M130.3,133L130.3,133c0.8,0,1.5,0.7,1.5,1.5l0,0c0,0.8-0.7,1.5-1.5,1.5l0,0
				c-0.8,0-1.5-0.7-1.5-1.5l0,0C128.8,133.7,129.4,133,130.3,133z"/>
		</g>
		<g transform="translate(-128 497)">
			<path id="round-71" class="st1" d="M130.3,133L130.3,133c0.8,0,1.5,0.7,1.5,1.5l0,0c0,0.8-0.7,1.5-1.5,1.5l0,0
				c-0.8,0-1.5-0.7-1.5-1.5l0,0C128.8,133.7,129.4,133,130.3,133z"/>
		</g>
		<g transform="translate(-128 506)">
			<path id="round-72" class="st1" d="M130.3,133L130.3,133c0.8,0,1.5,0.7,1.5,1.5l0,0c0,0.8-0.7,1.5-1.5,1.5l0,0
				c-0.8,0-1.5-0.7-1.5-1.5l0,0C128.8,133.7,129.4,133,130.3,133z"/>
		</g>
		<g transform="translate(-128 515)">
			<path id="round-73" class="st1" d="M130.3,133L130.3,133c0.8,0,1.5,0.7,1.5,1.5l0,0c0,0.8-0.7,1.5-1.5,1.5l0,0
				c-0.8,0-1.5-0.7-1.5-1.5l0,0C128.8,133.7,129.4,133,130.3,133z"/>
		</g>
		<g transform="translate(-128 524)">
			<path id="round-74" class="st1" d="M130.3,133L130.3,133c0.8,0,1.5,0.7,1.5,1.5l0,0c0,0.8-0.7,1.5-1.5,1.5l0,0
				c-0.8,0-1.5-0.7-1.5-1.5l0,0C128.8,133.7,129.4,133,130.3,133z"/>
		</g>
		<g transform="translate(-128 533)">
			<path id="round-75" class="st1" d="M130.3,133L130.3,133c0.8,0,1.5,0.7,1.5,1.5l0,0c0,0.8-0.7,1.5-1.5,1.5l0,0
				c-0.8,0-1.5-0.7-1.5-1.5l0,0C128.8,133.7,129.4,133,130.3,133z"/>
		</g>
		<g transform="translate(-128 542)">
			<path id="round-76" class="st1" d="M130.3,133L130.3,133c0.8,0,1.5,0.7,1.5,1.5l0,0c0,0.8-0.7,1.5-1.5,1.5l0,0
				c-0.8,0-1.5-0.7-1.5-1.5l0,0C128.8,133.7,129.4,133,130.3,133z"/>
		</g>
		<g transform="translate(-128 551)">
			<path id="round-77" class="st1" d="M130.3,133L130.3,133c0.8,0,1.5,0.7,1.5,1.5l0,0c0,0.8-0.7,1.5-1.5,1.5l0,0
				c-0.8,0-1.5-0.7-1.5-1.5l0,0C128.8,133.7,129.4,133,130.3,133z"/>
		</g>
		<g transform="translate(-128 560)">
			<path id="round-78" class="st1" d="M130.3,133L130.3,133c0.8,0,1.5,0.7,1.5,1.5l0,0c0,0.8-0.7,1.5-1.5,1.5l0,0
				c-0.8,0-1.5-0.7-1.5-1.5l0,0C128.8,133.7,129.4,133,130.3,133z"/>
		</g>
		<g transform="translate(-128 569)">
			<path id="round-79" class="st1" d="M130.3,133L130.3,133c0.8,0,1.5,0.7,1.5,1.5l0,0c0,0.8-0.7,1.5-1.5,1.5l0,0
				c-0.8,0-1.5-0.7-1.5-1.5l0,0C128.8,133.7,129.4,133,130.3,133z"/>
		</g>
		<g transform="translate(-128 578)">
			<path id="round-80" class="st1" d="M130.3,133L130.3,133c0.8,0,1.5,0.7,1.5,1.5l0,0c0,0.8-0.7,1.5-1.5,1.5l0,0
				c-0.8,0-1.5-0.7-1.5-1.5l0,0C128.8,133.7,129.4,133,130.3,133z"/>
		</g>
		<g transform="translate(-128 587)">
			<path id="round-81" class="st1" d="M130.3,133L130.3,133c0.8,0,1.5,0.7,1.5,1.5l0,0c0,0.8-0.7,1.5-1.5,1.5l0,0
				c-0.8,0-1.5-0.7-1.5-1.5l0,0C128.8,133.7,129.4,133,130.3,133z"/>
		</g>
		<g transform="translate(-128 596)">
			<path id="round-82" class="st1" d="M130.3,133L130.3,133c0.8,0,1.5,0.7,1.5,1.5l0,0c0,0.8-0.7,1.5-1.5,1.5l0,0
				c-0.8,0-1.5-0.7-1.5-1.5l0,0C128.8,133.7,129.4,133,130.3,133z"/>
		</g>
		<g transform="translate(-128 605)">
			<path id="round-83" class="st1" d="M130.3,133L130.3,133c0.8,0,1.5,0.7,1.5,1.5l0,0c0,0.8-0.7,1.5-1.5,1.5l0,0
				c-0.8,0-1.5-0.7-1.5-1.5l0,0C128.8,133.7,129.4,133,130.3,133z"/>
		</g>
		<g transform="translate(-128 614)">
			<path id="round-84" class="st1" d="M130.3,133L130.3,133c0.8,0,1.5,0.7,1.5,1.5l0,0c0,0.8-0.7,1.5-1.5,1.5l0,0
				c-0.8,0-1.5-0.7-1.5-1.5l0,0C128.8,133.7,129.4,133,130.3,133z"/>
		</g>
		<g transform="translate(-128 623)">
			<path id="round-85" class="st1" d="M130.3,133L130.3,133c0.8,0,1.5,0.7,1.5,1.5l0,0c0,0.8-0.7,1.5-1.5,1.5l0,0
				c-0.8,0-1.5-0.7-1.5-1.5l0,0C128.8,133.7,129.4,133,130.3,133z"/>
		</g>
		<g transform="translate(-128 632)">
			<path id="round-86" class="st1" d="M130.3,133L130.3,133c0.8,0,1.5,0.7,1.5,1.5l0,0c0,0.8-0.7,1.5-1.5,1.5l0,0
				c-0.8,0-1.5-0.7-1.5-1.5l0,0C128.8,133.7,129.4,133,130.3,133z"/>
		</g>
		<g transform="translate(-128 641)">
			<path id="round-87" class="st1" d="M130.3,133L130.3,133c0.8,0,1.5,0.7,1.5,1.5l0,0c0,0.8-0.7,1.5-1.5,1.5l0,0
				c-0.8,0-1.5-0.7-1.5-1.5l0,0C128.8,133.7,129.4,133,130.3,133z"/>
		</g>
		<g transform="translate(-128 650)">
			<path id="round-88" class="st1" d="M130.3,133L130.3,133c0.8,0,1.5,0.7,1.5,1.5l0,0c0,0.8-0.7,1.5-1.5,1.5l0,0
				c-0.8,0-1.5-0.7-1.5-1.5l0,0C128.8,133.7,129.4,133,130.3,133z"/>
		</g>
		<g transform="translate(-128 659)">
			<path id="round-89" class="st1" d="M130.3,133L130.3,133c0.8,0,1.5,0.7,1.5,1.5l0,0c0,0.8-0.7,1.5-1.5,1.5l0,0
				c-0.8,0-1.5-0.7-1.5-1.5l0,0C128.8,133.7,129.4,133,130.3,133z"/>
		</g>
		<g transform="translate(-128 668)">
			<path id="round-90" class="st1" d="M130.3,133L130.3,133c0.8,0,1.5,0.7,1.5,1.5l0,0c0,0.8-0.7,1.5-1.5,1.5l0,0
				c-0.8,0-1.5-0.7-1.5-1.5l0,0C128.8,133.7,129.4,133,130.3,133z"/>
		</g>
		<g transform="translate(-128 677)">
			<path id="round-91" class="st1" d="M130.3,133L130.3,133c0.8,0,1.5,0.7,1.5,1.5l0,0c0,0.8-0.7,1.5-1.5,1.5l0,0
				c-0.8,0-1.5-0.7-1.5-1.5l0,0C128.8,133.7,129.4,133,130.3,133z"/>
		</g>
		<g transform="translate(-128 686)">
			<path id="round-92" class="st1" d="M130.3,133L130.3,133c0.8,0,1.5,0.7,1.5,1.5l0,0c0,0.8-0.7,1.5-1.5,1.5l0,0
				c-0.8,0-1.5-0.7-1.5-1.5l0,0C128.8,133.7,129.4,133,130.3,133z"/>
		</g>
		<g transform="translate(-128 695)">
			<path id="round-93" class="st1" d="M130.3,133L130.3,133c0.8,0,1.5,0.7,1.5,1.5l0,0c0,0.8-0.7,1.5-1.5,1.5l0,0
				c-0.8,0-1.5-0.7-1.5-1.5l0,0C128.8,133.7,129.4,133,130.3,133z"/>
		</g>
		<g transform="translate(-128 704)">
			<path id="round-94" class="st1" d="M130.3,133L130.3,133c0.8,0,1.5,0.7,1.5,1.5l0,0c0,0.8-0.7,1.5-1.5,1.5l0,0
				c-0.8,0-1.5-0.7-1.5-1.5l0,0C128.8,133.7,129.4,133,130.3,133z"/>
		</g>
		<g transform="translate(-128 713)">
			<path id="round-95" class="st1" d="M130.3,133L130.3,133c0.8,0,1.5,0.7,1.5,1.5l0,0c0,0.8-0.7,1.5-1.5,1.5l0,0
				c-0.8,0-1.5-0.7-1.5-1.5l0,0C128.8,133.7,129.4,133,130.3,133z"/>
		</g>
		<g transform="translate(-128 722)">
			<path id="round-96" class="st1" d="M130.3,133L130.3,133c0.8,0,1.5,0.7,1.5,1.5l0,0c0,0.8-0.7,1.5-1.5,1.5l0,0
				c-0.8,0-1.5-0.7-1.5-1.5l0,0C128.8,133.7,129.4,133,130.3,133z"/>
		</g>
		<g transform="translate(-128 731)">
			<path id="round-97" class="st1" d="M130.3,133L130.3,133c0.8,0,1.5,0.7,1.5,1.5l0,0c0,0.8-0.7,1.5-1.5,1.5l0,0
				c-0.8,0-1.5-0.7-1.5-1.5l0,0C128.8,133.7,129.4,133,130.3,133z"/>
		</g>
		<g transform="translate(-128 740)">
			<path id="round-98" class="st1" d="M130.3,133L130.3,133c0.8,0,1.5,0.7,1.5,1.5l0,0c0,0.8-0.7,1.5-1.5,1.5l0,0
				c-0.8,0-1.5-0.7-1.5-1.5l0,0C128.8,133.7,129.4,133,130.3,133z"/>
		</g>
		<g transform="translate(-128 749)">
			<path id="round-99" class="st1" d="M130.3,133L130.3,133c0.8,0,1.5,0.7,1.5,1.5l0,0c0,0.8-0.7,1.5-1.5,1.5l0,0
				c-0.8,0-1.5-0.7-1.5-1.5l0,0C128.8,133.7,129.4,133,130.3,133z"/>
		</g>
		<g transform="translate(-128 758)">
			<path id="round-100" class="st1" d="M130.3,133L130.3,133c0.8,0,1.5,0.7,1.5,1.5l0,0c0,0.8-0.7,1.5-1.5,1.5l0,0
				c-0.8,0-1.5-0.7-1.5-1.5l0,0C128.8,133.7,129.4,133,130.3,133z"/>
		</g>
		<g transform="translate(-128 767)">
			<path id="round-101" class="st1" d="M130.3,133L130.3,133c0.8,0,1.5,0.7,1.5,1.5l0,0c0,0.8-0.7,1.5-1.5,1.5l0,0
				c-0.8,0-1.5-0.7-1.5-1.5l0,0C128.8,133.7,129.4,133,130.3,133z"/>
		</g>
		<g transform="translate(-128 776)">
			<path id="round-102" class="st1" d="M130.3,133L130.3,133c0.8,0,1.5,0.7,1.5,1.5l0,0c0,0.8-0.7,1.5-1.5,1.5l0,0
				c-0.8,0-1.5-0.7-1.5-1.5l0,0C128.8,133.7,129.4,133,130.3,133z"/>
		</g>
		<g transform="translate(-128 785)">
			<path id="round-103" class="st1" d="M130.3,133L130.3,133c0.8,0,1.5,0.7,1.5,1.5l0,0c0,0.8-0.7,1.5-1.5,1.5l0,0
				c-0.8,0-1.5-0.7-1.5-1.5l0,0C128.8,133.7,129.4,133,130.3,133z"/>
		</g>
		<g transform="translate(-128 794)">
			<path id="round-104" class="st1" d="M130.3,133L130.3,133c0.8,0,1.5,0.7,1.5,1.5l0,0c0,0.8-0.7,1.5-1.5,1.5l0,0
				c-0.8,0-1.5-0.7-1.5-1.5l0,0C128.8,133.7,129.4,133,130.3,133z"/>
		</g>
		<g transform="translate(-128 803)">
			<path id="round-105" class="st1" d="M130.3,133L130.3,133c0.8,0,1.5,0.7,1.5,1.5l0,0c0,0.8-0.7,1.5-1.5,1.5l0,0
				c-0.8,0-1.5-0.7-1.5-1.5l0,0C128.8,133.7,129.4,133,130.3,133z"/>
		</g>
		<g transform="translate(-128 812)">
			<path id="round-106" class="st1" d="M130.3,133L130.3,133c0.8,0,1.5,0.7,1.5,1.5l0,0c0,0.8-0.7,1.5-1.5,1.5l0,0
				c-0.8,0-1.5-0.7-1.5-1.5l0,0C128.8,133.7,129.4,133,130.3,133z"/>
		</g>
		<g transform="translate(-128 821)">
			<path id="round-107" class="st1" d="M130.3,133L130.3,133c0.8,0,1.5,0.7,1.5,1.5l0,0c0,0.8-0.7,1.5-1.5,1.5l0,0
				c-0.8,0-1.5-0.7-1.5-1.5l0,0C128.8,133.7,129.4,133,130.3,133z"/>
		</g>
		<g transform="translate(-128 830)">
			<path id="round-108" class="st1" d="M130.3,133L130.3,133c0.8,0,1.5,0.7,1.5,1.5l0,0c0,0.8-0.7,1.5-1.5,1.5l0,0
				c-0.8,0-1.5-0.7-1.5-1.5l0,0C128.8,133.7,129.4,133,130.3,133z"/>
		</g>
	</g>
</g>
<rect x="0.8" class="st2" width="3" height="966"/>
</svg>
